<?xml version="1.0" encoding="utf-8"?>
<svg xmlns="http://www.w3.org/2000/svg" xmlns:xlink="http://www.w3.org/1999/xlink" viewBox="0 0 100 100" id="root">
  <defs>
    <symbol id="symbol" viewBox="0 0 100 100">
      <path d="M 50 2.6054688 C 16.445595 2.7031135 -9.030489 37.718446 8.1425781 72.230469 C -7.3589323 28.87733 30.568001 7.8367986 47.642578 14.927734 C 26.598196 16.120977 8.1738281 33.791342 8.1738281 56.1875 C 8.1738281 84.40289 30.770088 97.394531 50 97.394531 C 66.200315 97.394531 74.859825 90.225918 79.726562 83.876953 L 81.546875 85.371094 L 86.816406 68.626953 C 86.816406 68.626953 78.350384 80.002878 76.974609 81.710938 C 72.000532 87.886364 63.583969 91.996094 50.15625 91.996094 C 36.638981 91.996094 20.654297 79.686745 20.654297 61.09375 C 20.654297 58.85516 21.031375 56.642154 22 54.464844 C 19.426592 66.23603 27.354057 88.25047 50.875 88.810547 C 66.617145 89.185397 80.127407 78.285265 80.085938 59.25 C 80.057474 46.185472 70.102474 32.112802 55.318359 30.529297 C 62.990056 30.740084 69.29272 33.181097 74.199219 38.664062 L 87.394531 54.720703 L 89.369141 53.408203 C 88.939725 52.821391 88.9469 52.836703 88.501953 52.226562 C 87.006191 50.175474 85.471675 48.058932 84.236328 46.324219 C 83.572885 45.392592 83.025334 44.609215 82.585938 43.966797 C 83.108135 42.689985 83.77816 41.87285 84.576172 41.457031 A 0.250025 0.250025 0 0 0 84.457031 40.984375 A 0.250025 0.250025 0 0 0 84.34375 41.013672 C 83.489519 41.458783 82.795367 42.278902 82.255859 43.464844 C 82.078089 43.196148 81.843198 42.853877 81.753906 42.699219 C 81.577924 42.394402 81.490337 42.040782 81.529297 41.578125 C 81.568257 41.115468 81.733884 40.593588 82.371094 40.03125 C 83.25414 39.25196 84.550072 39.030123 85.751953 39.134766 C 86.953834 39.239408 88.075559 39.656056 88.650391 40.324219 C 88.76831 40.460647 88.707421 40.673243 88.535156 40.726562 C 86.359999 41.408827 85.268133 42.57708 84.701172 43.572266 C 84.160629 44.521081 84.134659 45.217029 84.130859 45.287109 C 84.359568 45.611946 84.387123 45.673695 84.644531 46.035156 C 85.877929 47.767133 87.411107 49.8814 88.90625 51.931641 C 89.357893 52.550963 89.351599 52.535718 89.787109 53.130859 L 97.357422 48.099609 L 84.292969 19.193359 L 80.119141 23.369141 C 74.110476 17.669394 66.61005 14.510324 58.003906 14.162109 C 60.770134 8.0276799 78.087181 10.922714 85.210938 18.275391 C 75.491551 7.1155217 61.465706 2.572103 50 2.6054688 z M 50.875 34.341797 C 62.818727 34.354427 73.10742 42.762807 75.498047 54.464844 L 62.759766 54.464844 L 66.748047 47.433594 C 68.21237 44.9347 66.411951 41.789679 63.515625 41.787109 C 62.145244 41.786183 60.883462 42.532768 60.224609 43.734375 L 54.138672 54.464844 L 48.701172 54.464844 C 47.261438 51.904775 44.554324 50.318721 41.617188 50.314453 C 38.677954 50.316653 35.968107 51.90295 34.527344 54.464844 L 26.226562 54.464844 C 28.619104 42.753468 38.921733 34.342376 50.875 34.341797 z M 43.914062 62.570312 C 44.539603 62.592272 45.042667 62.733526 45.316406 62.826172 C 45.330386 62.832672 45.354019 62.843052 45.386719 62.857422 C 45.492575 62.903762 45.686766 62.981515 45.910156 63.041016 C 46.120697 63.095916 46.355667 63.137812 46.587891 63.107422 C 46.599051 63.126082 46.612553 63.155906 46.626953 63.197266 C 46.659903 63.290676 46.68998 63.421743 46.71875 63.544922 C 46.73861 63.627962 46.756709 63.70704 46.787109 63.785156 C 46.805869 63.829826 46.82434 63.876426 46.875 63.931641 C 46.90568 63.963901 46.940586 63.983997 46.972656 63.998047 C 47.046006 64.028987 47.104016 64.028158 47.15625 64.023438 C 47.20849 64.017737 47.25601 64.005384 47.302734 63.990234 C 47.395184 63.959594 47.486143 63.917244 47.570312 63.873047 C 47.669692 63.820557 47.757492 63.766303 47.814453 63.730469 C 47.818553 63.730624 47.821652 63.730201 47.826172 63.730469 C 47.875992 63.734469 47.944837 63.741313 48.023438 63.751953 C 48.17969 63.772183 48.373998 63.811723 48.494141 63.865234 C 48.530271 63.880344 48.556959 63.897506 48.574219 63.910156 C 48.528579 64.028303 48.470718 64.178689 48.40625 64.345703 L 48.220703 64.292969 C 48.135313 64.268949 48.048507 64.324029 48.025391 64.416016 C 48.002211 64.508146 48.051461 64.602992 48.136719 64.626953 L 48.283203 64.667969 L 48.107422 65.121094 L 47.900391 65.0625 C 47.815151 65.03852 47.728271 65.09342 47.705078 65.185547 C 47.681898 65.277707 47.730988 65.372434 47.816406 65.396484 L 47.982422 65.443359 C 47.934332 65.567927 47.891462 65.680228 47.855469 65.773438 C 47.828519 65.839817 47.799959 65.869227 47.751953 65.898438 C 47.703923 65.926218 47.630664 65.945206 47.541016 65.947266 C 47.362044 65.953466 47.128847 65.888956 46.960938 65.814453 C 46.839646 65.760953 46.7104 65.734192 46.582031 65.757812 C 46.453566 65.780762 46.340355 65.854222 46.251953 65.943359 C 46.075869 66.122685 45.952884 66.366985 45.792969 66.6875 L 45.792969 66.689453 L 45.791016 66.691406 C 45.778316 66.716856 45.768206 66.741832 45.759766 66.763672 C 45.693686 66.932419 45.693159 67.109015 45.724609 67.261719 C 45.755699 67.415695 45.813769 67.55468 45.875 67.689453 C 45.999415 67.957779 46.136842 68.218193 46.185547 68.505859 C 46.217987 68.697402 46.215328 68.900637 46.142578 69.146484 L 46.142578 69.148438 C 46.105688 69.269929 46.065898 69.388905 46.021484 69.503906 C 45.675326 70.398694 45.092827 71.101962 44.326172 71.462891 C 43.559235 71.82266 42.593962 71.854515 41.441406 71.351562 C 41.11711 71.209508 40.778919 71.023152 40.427734 70.791016 C 39.659804 70.28249 39.181326 69.543265 38.976562 68.695312 C 38.772576 67.847297 38.846252 66.88854 39.205078 65.958984 C 39.432344 65.370231 39.774087 64.794111 40.230469 64.267578 C 41.235453 63.110503 42.318018 62.698336 43.251953 62.59375 C 43.483261 62.56812 43.705549 62.562993 43.914062 62.570312 z M 44.748047 63.304688 C 44.469207 63.251877 44.118381 63.53485 44.138672 63.998047 C 44.170162 64.714027 44.805914 65.546143 45.574219 65.328125 C 46.117882 65.173798 46.17856 64.559809 45.683594 64.158203 C 45.188602 63.75659 45.194417 63.389303 44.748047 63.304688 z M 49.03125 64.005859 L 49.035156 64.005859 C 49.053496 64.007859 49.083364 64.013864 49.121094 64.027344 C 49.232513 64.066584 49.462788 64.134538 49.707031 64.207031 C 49.949497 64.278781 50.202401 64.354225 50.333984 64.398438 C 50.365504 64.409018 50.388768 64.417785 50.398438 64.421875 C 50.401438 64.426675 50.408039 64.439487 50.412109 64.466797 C 50.421709 64.524307 50.415106 64.63931 50.353516 64.796875 C 50.347516 64.813465 50.322512 64.863785 50.289062 64.927734 C 50.255263 64.992524 50.210702 65.074695 50.158203 65.167969 C 50.052661 65.354902 49.917081 65.588403 49.765625 65.84375 C 49.462812 66.355276 49.103181 66.950021 48.826172 67.417969 C 48.640867 67.73098 48.494196 67.983904 48.417969 68.132812 C 48.364959 68.235181 48.300883 68.30622 48.216797 68.361328 C 48.132587 68.415828 48.022854 68.455448 47.871094 68.466797 C 47.584907 68.489377 47.155171 68.400427 46.580078 68.158203 C 46.487808 67.853431 46.350717 67.605248 46.263672 67.404297 C 46.203282 67.267904 46.168156 67.156114 46.166016 67.076172 C 46.164716 67.029842 46.17122 66.994082 46.1875 66.951172 L 46.197266 66.925781 L 46.199219 66.921875 C 46.286569 66.744629 46.36291 66.597176 46.429688 66.488281 C 46.496358 66.378732 46.55383 66.309836 46.59375 66.279297 C 46.62078 66.258307 46.636987 66.25356 46.654297 66.25 C 46.676637 66.246 46.714267 66.245701 46.783203 66.275391 C 46.942213 66.344811 47.13535 66.407691 47.339844 66.433594 C 47.543369 66.458164 47.762234 66.450931 47.964844 66.337891 C 48.098818 66.263261 48.218625 66.131582 48.283203 65.960938 C 48.327123 65.847294 48.382563 65.704371 48.443359 65.546875 L 48.619141 65.595703 C 48.704551 65.619733 48.793281 65.564613 48.816406 65.472656 C 48.839586 65.380516 48.788546 65.285725 48.703125 65.261719 L 48.566406 65.224609 L 48.742188 64.771484 L 48.939453 64.826172 C 49.024693 64.850152 49.11164 64.795072 49.134766 64.703125 C 49.157946 64.610995 49.108675 64.518095 49.023438 64.494141 L 48.865234 64.449219 L 49.013672 64.064453 C 49.018772 64.051893 49.021471 64.036698 49.025391 64.023438 L 49.027344 64.023438 L 49.03125 64.005859 z M 65.3125 70.042969 C 65.704628 70.016549 66.065179 70.128139 66.279297 70.355469 C 66.850245 70.961933 66.936612 71.626038 66.242188 71.794922 C 65.645027 71.939792 64.95439 72.721261 65.699219 72.382812 C 66.443774 72.04453 68.163842 72.018631 67.941406 73.675781 C 67.778726 74.885328 66.441952 75.042326 65.806641 74.947266 C 65.171802 74.852276 64.667856 74.757907 63.96875 75.173828 L 58.644531 78.341797 C 57.751446 78.873176 58.867603 78.023114 58.697266 79.53125 C 58.513558 81.165579 56.576301 81.531532 55.921875 80.34375 C 55.267891 79.156055 56.408709 78.160382 56.541016 78.029297 C 56.541016 78.029297 55.982454 77.927111 55.675781 78.40625 C 55.369709 78.885051 54.005746 78.275856 54.181641 77.199219 C 54.357511 76.122577 55.326756 75.545704 56.402344 75.851562 C 57.478169 76.157505 58.471816 75.882122 59.248047 75.419922 C 60.024802 74.957599 62.417969 73.494141 62.417969 73.494141 C 63.50501 72.8473 63.228288 72.510348 63.603516 71.421875 C 63.916449 70.512614 64.658953 70.086996 65.3125 70.042969 z"/>
    </symbol>
  </defs>
  <rect id="background" fill="white" width="100%" height="100%"/>
  <use xlink:href="#symbol" fill="black"/>
</svg>
